<svg width="28" height="24" viewBox="0 0 28 24" fill="none" xmlns="http://www.w3.org/2000/svg">
<path fill-rule="evenodd" clip-rule="evenodd" d="M0.999936 0C0.734737 0 0.480399 0.105351 0.292874 0.292878C0.10535 0.480404 0 0.734745 0 0.999947V10.5994C0 11.256 0.129321 11.9062 0.380578 12.5128C0.631836 13.1194 1.00011 13.6705 1.46437 14.1348C2.40199 15.0724 3.67368 15.5992 4.99968 15.5992H24.5844L17.8909 22.2908C17.7031 22.4786 17.5976 22.7333 17.5976 22.9988C17.5976 23.2643 17.7031 23.519 17.8909 23.7068C18.0786 23.8945 18.3333 24 18.5988 24C18.8643 24 19.119 23.8945 19.3068 23.7068L27.7062 15.3072C27.7994 15.2143 27.8732 15.104 27.9236 14.9825C27.9741 14.861 28 14.7308 28 14.5992C28 14.4677 27.9741 14.3375 27.9236 14.216C27.8732 14.0945 27.7994 13.9842 27.7062 13.8913L19.7067 5.89169C19.519 5.70393 19.2643 5.59844 18.9988 5.59844C18.7333 5.59844 18.4786 5.70393 18.2908 5.89169C18.1031 6.07945 17.9976 6.33412 17.9976 6.59965C17.9976 6.86519 18.1031 7.11985 18.2908 7.30761L24.5844 13.5993H4.99968C4.20408 13.5993 3.44107 13.2832 2.8785 12.7207C2.31592 12.1581 1.99987 11.3951 1.99987 10.5994V0.999947C1.99987 0.734745 1.89452 0.480404 1.707 0.292878C1.51947 0.105351 1.26514 0 0.999936 0Z" fill="white"/>
</svg>
